<?xml version="1.0" encoding="UTF-8"?>
<svg width="89px" height="52px" viewBox="0 0 89 52" version="1.1" xmlns="http://www.w3.org/2000/svg" xmlns:xlink="http://www.w3.org/1999/xlink">
    <!-- Generator: Sketch 55.2 (78181) - https://sketchapp.com -->
    <title>exit</title>
    <desc>Created with Sketch.</desc>
    <g id="Page-1" stroke="none" stroke-width="1" fill="none" fill-rule="evenodd">
        <g id="exit" transform="translate(1.000000, 1.000000)" fill-rule="nonzero">
            <polygon id="Triangle" fill="#443C4C" transform="translate(70.912738, 25.000762) rotate(90.000000) translate(-70.912738, -25.000762) " points="70.9127385 8.00076201 95.9127385 42.000762 45.9127385 42.000762"></polygon>
            <rect id="Rectangle" fill="#443C4C" x="1" y="10" width="53" height="30"></rect>
            <g id="Group-2" fill="#FFFFFF" stroke="#330066">
                <path d="M24.9757329,50 C14.9532177,50 6.82836371,40.3469761 6.82836371,28.4393676 C6.82836371,25.4862747 -2.2407965,3.61481445 0.524540712,0.524022432 C3.28987792,-2.56676959 16.6064624,9.06648582 18.9989389,8.07540874 C20.8705012,7.30011899 22.8816977,6.87873515 24.9757329,6.87873515 C24.9838244,6.87873515 24.9919146,6.87874144 25,6.87875402 C25.0080854,6.87874144 25.0161756,6.87873515 25.0242671,6.87873515 C27.1183023,6.87873515 29.1294988,7.30011899 31.0010611,8.07540874 C33.3935376,9.06648582 46.7101221,-2.56676959 49.4754593,0.524022432 C52.2407965,3.61481445 43.1716363,25.4862747 43.1716363,28.4393676 C43.1716363,40.3469761 35.0467823,50 25.0242671,50 C25.0080841,50 24.9919062,50 24.9757332,50 L24.9757329,50 Z" id="Combined-Shape"></path>
            </g>
        </g>
    </g>
</svg>