<?xml version="1.0" encoding="UTF-8"?>
<svg width="214px" height="155px" viewBox="0 0 214 155" version="1.1" xmlns="http://www.w3.org/2000/svg" xmlns:xlink="http://www.w3.org/1999/xlink">
    <title>paw</title>
    <g id="Page-1" stroke="none" stroke-width="1" fill="none" fill-rule="evenodd">
        <g id="paw" fill="#6DC761" fill-rule="nonzero">
            <path d="M106.5,150 C138.5,161 167,152.241654 167,118 C167,83.7583455 139.913227,56 106.5,56 C73.0867726,56 46,83.7583455 46,118 C46,152.241654 79,161 106.5,150 Z" id="Oval"></path>
            <path d="M77.5,56 C90.4786916,56 103,44.8071187 103,31 C103,17.1928813 90.4786916,3 77.5,3 C64.5213084,3 52,17.1928813 52,31 C52,44.8071187 64.5213084,56 77.5,56 Z" id="Oval" transform="translate(77.500000, 29.500000) rotate(-6.000000) translate(-77.500000, -29.500000) "></path>
            <path d="M137.5,56 C150.478692,56 163,44.8071187 163,31 C163,17.1928813 150.478692,3 137.5,3 C124.521308,3 112,17.1928813 112,31 C112,44.8071187 124.521308,56 137.5,56 Z" id="Oval" transform="translate(137.500000, 29.500000) scale(-1, 1) rotate(-6.000000) translate(-137.500000, -29.500000) "></path>
            <path d="M33.5,94 C46.4786916,94 57,78.8071187 57,65 C57,51.1928813 46.4786916,40 33.5,40 C20.5213084,40 10,51.1928813 10,65 C10,78.8071187 20.5213084,94 33.5,94 Z" id="Oval" transform="translate(33.500000, 67.000000) rotate(-26.000000) translate(-33.500000, -67.000000) "></path>
            <path d="M180.5,94 C193.478692,94 204,78.8071187 204,65 C204,51.1928813 193.478692,40 180.5,40 C167.521308,40 157,51.1928813 157,65 C157,78.8071187 167.521308,94 180.5,94 Z" id="Oval" transform="translate(180.500000, 67.000000) scale(-1, 1) rotate(-26.000000) translate(-180.500000, -67.000000) "></path>
        </g>
    </g>
</svg>